<svg width="27" height="18" viewBox="0 0 27 18" fill="none" xmlns="http://www.w3.org/2000/svg">
<path d="M0 2.83876C0 1.98373 0.515103 1.52268 1.54531 1.45562L5.51515 1.48077C5.78158 1.48077 5.95921 1.60651 6.04802 1.85799C6.45655 3.11538 6.91392 4.20094 7.42014 5.11465C7.92637 6.02835 8.58801 7.08038 9.40507 8.27071C9.47611 8.4216 9.59157 8.49704 9.75143 8.49704C9.87576 8.49704 9.97345 8.43836 10.0445 8.32101L10.1244 8.04438L10.1511 3.69379C10.1511 3.39201 10.0756 3.19083 9.92461 3.09024C9.77363 2.98965 9.49388 2.9142 9.08535 2.86391C8.76563 2.81361 8.60577 2.62919 8.60577 2.31065C8.60577 2.24359 8.61465 2.19329 8.63241 2.15976C9.00542 1.07002 10.0711 0.525148 11.8296 0.525148L13.3216 0.5C13.9966 0.5 14.5561 0.65927 15.0001 0.977811C15.4442 1.29635 15.6662 1.79931 15.6662 2.48669V8.19527C15.7906 8.27909 15.906 8.32101 16.0126 8.32101C16.279 8.32101 16.5099 8.17012 16.7053 7.86834C18.6592 5.28649 19.716 3.55966 19.8759 2.68787C19.8759 2.6711 19.8936 2.62919 19.9291 2.56213C20.0535 2.31065 20.2577 2.0927 20.5419 1.90828C20.8261 1.72387 21.0748 1.59813 21.288 1.53107C21.359 1.49753 21.4389 1.48077 21.5277 1.48077H25.6574L25.9239 1.50592C26.2791 1.50592 26.5544 1.66519 26.7498 1.98373C26.8209 2.08432 26.8697 2.19329 26.8964 2.31065C26.923 2.42801 26.9408 2.54536 26.9496 2.66272C26.9585 2.78008 26.963 2.84714 26.963 2.86391V3.03994C26.8386 3.72732 26.5233 4.4608 26.0171 5.24038C25.5109 6.01997 24.867 6.86243 24.0855 7.76775C23.304 8.67308 22.8155 9.26825 22.6201 9.55326C22.4603 9.75444 22.3803 9.93886 22.3803 10.1065C22.3803 10.2406 22.4514 10.3915 22.5935 10.5592L26.4834 15.1864C26.6965 15.4546 26.8031 15.748 26.8031 16.0666C26.8031 16.4522 26.6432 16.7707 26.3235 17.0222C26.0038 17.2737 25.6219 17.4162 25.1779 17.4497L24.7249 17.4749H20.6752C20.6574 17.4749 20.6219 17.479 20.5686 17.4874C20.5153 17.4958 20.4798 17.5 20.462 17.5C20.0712 17.5 19.7071 17.3407 19.3696 17.0222C19.2453 16.8881 18.4105 15.8989 16.8652 14.0547C16.7764 13.9374 16.652 13.8284 16.4922 13.7278C16.4211 13.9961 16.3279 14.3817 16.2124 14.8846C16.097 15.3876 16.0126 15.748 15.9593 15.966L15.8794 16.3935C15.7018 16.9803 15.3287 17.3323 14.7604 17.4497L14.3874 17.4749H11.7763C10.3021 17.4749 8.83224 16.8378 7.36686 15.5636C5.90148 14.2894 4.58264 12.6423 3.41034 10.622C2.23803 8.60182 1.14566 6.25049 0.133216 3.56805C0.0444054 3.3501 0 3.107 0 2.83876ZM16.0126 9.35207C15.6396 9.35207 15.3021 9.25567 15.0001 9.06287C14.6982 8.87007 14.5472 8.60602 14.5472 8.27071V2.48669C14.5472 2.15138 14.4584 1.91248 14.2808 1.76997C14.1032 1.62747 13.7923 1.55621 13.3483 1.55621L11.8296 1.60651C11.0658 1.60651 10.4886 1.73225 10.0978 1.98373C10.8793 2.3358 11.2701 2.90582 11.2701 3.69379V8.11982C11.2346 8.53895 11.0569 8.88683 10.7372 9.16346C10.4175 9.44009 10.0623 9.5784 9.6715 9.5784C9.13863 9.5784 8.7301 9.33531 8.44591 8.84911C7.06046 6.87081 6.03025 4.9931 5.35529 3.21598L5.1155 2.56213L1.57195 2.53698C1.34104 2.53698 1.21227 2.54956 1.18562 2.5747C1.15898 2.59985 1.14566 2.6711 1.14566 2.78846C1.14566 2.93935 1.16342 3.09862 1.19895 3.26627L1.75845 4.67456C3.25048 8.31262 4.87127 11.1795 6.62085 13.2751C8.37042 15.3708 10.0889 16.4186 11.7763 16.4186H14.4406C14.5472 16.4186 14.6271 16.3893 14.6804 16.3306C14.7337 16.2719 14.7781 16.1588 14.8136 15.9911L14.8669 15.7396L15.3732 13.5266C15.5152 13.2249 15.6396 13.0237 15.7462 12.9231C15.9415 12.7387 16.1725 12.6465 16.4389 12.6465C16.8652 12.6465 17.3003 12.8895 17.7444 13.3757L20.0091 16.0917C20.1512 16.3097 20.3022 16.4186 20.462 16.4186H24.8581C25.391 16.4186 25.6574 16.2929 25.6574 16.0414C25.6574 15.9576 25.6308 15.8738 25.5775 15.7899L21.7142 11.2382C21.4123 10.8861 21.2613 10.5089 21.2613 10.1065C21.2613 9.70414 21.4034 9.31854 21.6876 8.9497C21.9185 8.6144 22.367 8.05695 23.0331 7.27737C23.6992 6.49778 24.2809 5.76849 24.7782 5.0895C25.2756 4.4105 25.6042 3.79438 25.764 3.24112L25.8439 2.9142C25.8262 2.88067 25.8173 2.82618 25.8173 2.75074C25.8173 2.6753 25.8084 2.61243 25.7907 2.56213H21.6077C21.3412 2.66272 21.1281 2.81361 20.9682 3.01479L20.8084 3.4926C20.3643 4.64941 19.2009 6.43491 17.3181 8.84911C16.9451 9.18442 16.5099 9.35207 16.0126 9.35207Z" fill="#231F20"/>
</svg>
