<svg width="20" height="18" viewBox="0 0 20 18" fill="none" xmlns="http://www.w3.org/2000/svg">
<path fill-rule="evenodd" clip-rule="evenodd" d="M19.4608 0.652905C19.6393 0.802216 19.7255 1.0349 19.6872 1.26448L17.0611 17.0214C17.0244 17.2411 16.8789 17.4273 16.6745 17.5159C16.47 17.6045 16.2346 17.5833 16.0493 17.4597L8.17082 12.2074C8.01771 12.1054 7.91447 11.9437 7.88624 11.7619C7.858 11.58 7.90738 11.3947 8.02233 11.251L10.633 7.98773L6.27303 10.8944C6.077 11.025 5.82597 11.0407 5.61524 10.9353L0.362931 8.30915C0.127693 8.19153 -0.0146529 7.94488 0.00119976 7.68235C0.0170525 7.41983 0.188044 7.1921 0.435726 7.10364L18.8188 0.538258C19.038 0.459976 19.2822 0.503595 19.4608 0.652905ZM2.32626 7.82275L5.86168 9.59046L13.4231 4.5495C13.6925 4.36994 14.0525 4.41349 14.2712 4.6521C14.49 4.8907 14.5022 5.25314 14.3 5.50591L9.49502 11.5121L15.9328 15.8039L18.2083 2.15058L2.32626 7.82275Z" fill="#231F20"/>
</svg>
