<svg width="32" height="32" fill="none" xmlns="http://www.w3.org/2000/svg"><rect width="32" height="32" rx="8" fill="#EEE"/><path d="M24.632 17.44c-.086-2.27-.43-4.539-.43-6.809 0-1.849.344-3.782-.345-5.548 0-.168.086-.42.086-.588.172-.925-2.84-.42-3.271.42-.258.253-.43.505-.344.841 0 .084.086.168.086.252-.603 2.69-1.378 5.38-2.238 7.986-.345 1.009-.775 2.017-1.12 3.026-.516-.924-1.033-1.85-1.463-2.858-1.205-2.942-2.238-5.884-3.702-8.658.172-1.261-2.754-1.177-3.357 0-.689 1.429-.603 2.858-.344 4.455.258 1.765.344 3.447.344 5.212 0 3.362.344 6.725.344 10.087-.344.336-.43.757-.086 1.177l.517.504c.775.589 3.013.084 3.013-1.092 0-3.531-.258-6.978-.345-10.508V14.33c.086.084.086.252.173.336.516 1.345 1.119 2.69 1.893 3.951.775 1.261 1.12 2.606 1.55 3.951-.172.168-.258.42-.172.589 0 .168.086.252.258.336.517.504 1.636.252 2.152 0 .259-.084.517-.252.689-.336.258-.169.775-.589.602-1.01 0-.083-.086-.167-.086-.251.43-1.093.603-2.186.861-3.363.259-1.177.689-2.353 1.12-3.53.085.504.085 1.093.172 1.597.172 2.185 0 4.287 0 6.473 0 .756.086 1.345.172 2.101.086.252.344 1.513.258 1.597-.517.505-.344 1.093.344 1.177.775.168 1.808-.084 2.41-.588 1.034-.925.517-2.438.345-3.615-.517-2.017-.086-4.287-.086-6.305Z" fill="#000"/></svg>