<svg xmlns="http://www.w3.org/2000/svg" width="457.62pt" height="349.5pt" viewBox="0 0 457.62 349.5">
<path style="fill:#62d1ba;" d="M 440.707031 82.496094 C 440.707031 82.496094 436.519531 50.636719 423.5 36.6875 C 406.988281 18.316406 388.617188 18.199219 380.132813 17.152344 C 319.558594 12.503906 228.753906 12.503906 228.753906 12.503906 L 228.519531 12.503906 C 228.519531 12.503906 137.71875 12.503906 77.144531 17.152344 C 68.65625 18.199219 50.285156 18.316406 33.777344 36.6875 C 20.871094 50.753906 16.570313 82.496094 16.570313 82.496094 C 16.570313 82.496094 12.5 119.816406 12.5 157.136719 L 12.5 192.132813 C 12.5 229.453125 16.800781 266.777344 16.800781 266.777344 C 16.800781 266.777344 20.988281 298.632813 34.007813 312.582031 C 50.519531 330.953125 72.027344 330.371094 81.679688 332.347656 C 116.324219 335.835938 228.753906 337 228.753906 337 C 228.753906 337 319.675781 336.882813 380.246094 332.234375 C 388.734375 331.1875 407.105469 331.070313 423.613281 312.699219 C 436.519531 298.75 440.820313 266.890625 440.820313 266.890625 C 440.820313 266.890625 445.125 229.570313 445.125 192.246094 L 445.125 157.253906 C 445.007813 119.816406 440.707031 82.496094 440.707031 82.496094 "/>
<path style="fill:none;stroke-width:250;stroke:#fff;" d="M 4407.070313 2670.039063 C 4407.070313 2670.039063 4365.195313 2988.632813 4235 3128.125 C 4069.882813 3311.835938 3886.171875 3313.007813 3801.328125 3323.476563 C 3195.585938 3369.960938 2287.539063 3369.960938 2287.539063 3369.960938 L 2285.195313 3369.960938 C 2285.195313 3369.960938 1377.1875 3369.960938 771.445313 3323.476563 C 686.5625 3313.007813 502.851563 3311.835938 337.773438 3128.125 C 208.710938 2987.460938 165.703125 2670.039063 165.703125 2670.039063 C 165.703125 2670.039063 125 2296.835938 125 1923.632813 L 125 1573.671875 C 125 1200.46875 168.007813 827.226563 168.007813 827.226563 C 168.007813 827.226563 209.882813 508.671875 340.078125 369.179688 C 505.195313 185.46875 720.273438 191.289063 816.796875 171.523438 C 1163.242188 136.640625 2287.539063 125 2287.539063 125 C 2287.539063 125 3196.757813 126.171875 3802.460938 172.65625 C 3887.34375 183.125 4071.054688 184.296875 4236.132813 368.007813 C 4365.195313 507.5 4408.203125 826.09375 4408.203125 826.09375 C 4408.203125 826.09375 4451.25 1199.296875 4451.25 1572.539063 L 4451.25 1922.460938 C 4450.078125 2296.835938 4407.070313 2670.039063 4407.070313 2670.039063 Z M 4407.070313 2670.039063 " transform="matrix(0.1,0,0,-0.1,0,349.5)"/>
<path style="fill:#fff;" d="M 174.691406 93.539063 L 174.691406 255.847656 L 309.90625 174.695313 "/>
</svg>
